<svg role="img" viewBox="0 0 24 24" xmlns="http://www.w3.org/2000/svg" id="Scrapy--Streamline-Simple-Icons" height="24" width="24">
  <desc>
    Scrapy Streamline Icon: https://streamlinehq.com
  </desc>
  <title>Scrapy</title>
  <path d="M12 0C5.373 0 0 5.373 0 12c0 6.628 5.373 12 12 12 6.628 0 12 -5.372 12 -12 0 -6.627 -5.372 -12 -12 -12Zm0 1.113c6.003 0 10.887 4.884 10.887 10.887S18.003 22.887 12 22.887 1.113 18.003 1.113 12 5.997 1.113 12 1.113Zm7.03 5.201c-0.536 -0.002 -1.28 0.304 -2.255 1.098 -1.052 0.858 -3.814 3.045 -3.814 3.045l1.025 1.3c4.694 -2.558 6.19 -3.167 6.116 -4.294 -0.042 -0.634 -0.384 -1.146 -1.073 -1.149Zm-0.507 0.752c0.147 0 0.266 0.106 0.266 0.239 0 0.132 -0.119 0.238 -0.266 0.238 -0.146 0 -0.265 -0.106 -0.265 -0.238 0 -0.171 0.162 -0.239 0.265 -0.239zm-1.58 1.489c0 0.131 -0.118 0.238 -0.265 0.238 -0.147 0 -0.264 -0.107 -0.264 -0.238 0 -0.128 0.11 -0.234 0.24 -0.24 0.13 -0.006 0.29 0.077 0.29 0.24zm-2.109 1.01c0.147 0 0.266 0.106 0.266 0.238s-0.12 0.238 -0.266 0.238c-0.146 0 -0.266 -0.106 -0.266 -0.238 0 -0.148 0.139 -0.239 0.266 -0.239zm-2.445 0.972c-1.502 0.225 -5.807 0.992 -8.01 2.672l3.574 5.387s4.706 -2.932 5.863 -6.244z" fill="#000000" stroke-width="1"></path>
</svg>